{"scene":0,"asset":{"generator":"ImageToStl.com","version":"2.0"},"scenes":[{"name":"Scene","nodes":[0]}],"nodes":[{"name":"Node0","children":[1,8]},{"name":"Armature","children":[2]},{"name":"Root","children":[3]},{"name":"Skl_Root","children":[4]},{"name":"a","children":[5,6,7]},{"name":"Fin"},{"name":"down_Fin"},{"name":"up_Fin"},{"name":"FishManbou__mManbou","children":[9]},{"name":"Node9","mesh":0}],"materials":[{"name":"Effect_mManbou","pbrMetallicRoughness":{"baseColorFactor":[0.85,0.85,0.85,1.0],"metallicFactor":0.0,"roughnessFactor":1.0,"baseColorTexture":{"index":0}},"emissiveFactor":[0.0,0.0,0.0],"doubleSided":true}],"images":[{"bufferView":0,"name":"","mimeType":"image/png"},{"bufferView":1,"name":"","mimeType":"image/png"},{"bufferView":2,"name":"","mimeType":"image/png"}],"textures":[{"sampler":0,"source":0},{"sampler":0,"source":1},{"sampler":0,"source":2}],"samplers":[{"magFilter":9729,"minFilter":9987}],"meshes":[{"name":"Mesh0","primitives":[{"indices":3,"material":0,"attributes":{"POSITION":0,"NORMAL":1,"TEXCOORD_0":2}}]}],"accessors":[{"bufferView":3,"componentType":5126,"count":922,"type":"VEC3","min":[-4.372423,-14.5857,-13.59761],"max":[4.372423,14.84122,10.04504]},{"bufferView":4,"componentType":5126,"count":922,"type":"VEC3"},{"bufferView":5,"componentType":5126,"count":922,"type":"VEC2"},{"bufferView":6,"componentType":5123,"count":14400,"type":"SCALAR"}],"bufferViews":[{"buffer":0,"byteLength":207749,"byteOffset":0},{"buffer":0,"byteLength":74257,"byteOffset":207752},{"buffer":0,"byteLength":30587,"byteOffset":282012},{"target":34962,"buffer":0,"byteLength":11064,"byteOffset":312600},{"target":34962,"buffer":0,"byteLength":11064,"byteOffset":323664},{"target":34962,"buffer":0,"byteLength":7376,"byteOffset":334728},{"target":34963,"buffer":0,"byteLength":28800,"byteOffset":342104}],"buffers":[{"byteLength":370904,"uri":"data:application/octet-stream;base64,"}]}