{"scene":0,"asset":{"generator":"ImageToStl.com","version":"2.0"},"scenes":[{"name":"Scene","nodes":[0]}],"nodes":[{"name":"Node0","children":[1,12]},{"name":"Armature","children":[2]},{"name":"Root","children":[3]},{"name":"Skl_Root","children":[4]},{"name":"a","children":[5,9,10,11]},{"name":"b","children":[6]},{"name":"c","children":[7]},{"name":"d","children":[8]},{"name":"e"},{"name":"fin_l"},{"name":"fin_r"},{"name":"jaw"},{"name":"FishJinbeezame__mJinbeezame","children":[13]},{"name":"Node13","mesh":0}],"materials":[{"name":"Effect_mJinbeezame","pbrMetallicRoughness":{"baseColorFactor":[0.85,0.85,0.85,1.0],"metallicFactor":0.0,"roughnessFactor":1.0,"baseColorTexture":{"index":0}},"emissiveFactor":[0.0,0.0,0.0],"doubleSided":true}],"images":[{"bufferView":0,"name":"","mimeType":"image/png"},{"bufferView":1,"name":"","mimeType":"image/png"},{"bufferView":2,"name":"","mimeType":"image/png"}],"textures":[{"sampler":0,"source":0},{"sampler":0,"source":1},{"sampler":0,"source":2}],"samplers":[{"magFilter":9729,"minFilter":9987}],"meshes":[{"name":"Mesh0","primitives":[{"indices":3,"material":0,"attributes":{"POSITION":0,"NORMAL":1,"TEXCOORD_0":2}}]}],"accessors":[{"bufferView":3,"componentType":5126,"count":1213,"type":"VEC3","min":[-7.678109,-5.54801,-23.49087],"max":[7.678109,6.98251,16.01663]},{"bufferView":4,"componentType":5126,"count":1213,"type":"VEC3"},{"bufferView":5,"componentType":5126,"count":1213,"type":"VEC2"},{"bufferView":6,"componentType":5123,"count":17784,"type":"SCALAR"}],"bufferViews":[{"buffer":0,"byteLength":262662,"byteOffset":0},{"buffer":0,"byteLength":77117,"byteOffset":262664},{"buffer":0,"byteLength":34480,"byteOffset":339784},{"target":34962,"buffer":0,"byteLength":14556,"byteOffset":374264},{"target":34962,"buffer":0,"byteLength":14556,"byteOffset":388820},{"target":34962,"buffer":0,"byteLength":9704,"byteOffset":403376},{"target":34963,"buffer":0,"byteLength":35568,"byteOffset":413080}],"buffers":[{"byteLength":448648,"uri":"data:application/octet-stream;base64,"}]}